<!DOCTYPE svg PUBLIC "-//W3C//DTD SVG 1.1//EN" "http://www.w3.org/Graphics/SVG/1.1/DTD/svg11.dtd">

<!-- Uploaded to: SVG Repo, www.svgrepo.com, Transformed by: SVG Repo Mixer Tools -->
<svg fill="#000000" width="24px" height="24px" viewBox="0 0 36.00 36.00" version="1.1" preserveAspectRatio="xMidYMid meet" xmlns="http://www.w3.org/2000/svg" xmlns:xlink="http://www.w3.org/1999/xlink" transform="rotate(0)" stroke="#000000" stroke-width="0.00036">

<g id="SVGRepo_bgCarrier" stroke-width="0"/>

<g id="SVGRepo_tracerCarrier" stroke-linecap="round" stroke-linejoin="round" stroke="#CCCCCC" stroke-width="0.072"/>

<g id="SVGRepo_iconCarrier"> <title>block-line</title> <path d="M31.42,9.09l-13-6a1,1,0,0,0-.84,0l-13,6A1,1,0,0,0,4,10V27a1,1,0,0,0,.58.91l13,6a1,1,0,0,0,.84,0l13-6A1,1,0,0,0,32,27V10A1,1,0,0,0,31.42,9.09ZM18,5.1,28.61,10,18,14.9,7.39,10ZM6,11.56l11,5.08v14.8L6,26.36ZM19,31.44V16.64l11-5.08v14.8Z" class="clr-i-outline clr-i-outline-path-1"/> <rect x="0" y="0" width="36" height="36" fill-opacity="0"/> </g>

</svg>